<svg id="svg" version="1.1" xmlns="http://www.w3.org/2000/svg" xmlns:xlink="http://www.w3.org/1999/xlink" width="400" height="400" viewBox="0, 0, 400,400"><g id="svgg"><path id="path0" d="M178.100 0.274 C 175.839 0.359,174.000 0.601,174.000 0.814 C 174.000 1.026,172.740 1.200,171.200 1.200 C 169.600 1.200,168.400 1.371,168.400 1.600 C 168.400 1.822,167.333 2.000,166.000 2.000 C 164.667 2.000,163.600 2.178,163.600 2.400 C 163.600 2.620,162.610 2.800,161.400 2.800 C 160.190 2.800,159.200 2.980,159.200 3.200 C 159.200 3.420,158.480 3.600,157.600 3.600 C 156.720 3.600,156.000 3.780,156.000 4.000 C 156.000 4.220,155.100 4.400,154.000 4.400 C 152.900 4.400,152.000 4.580,152.000 4.800 C 152.000 5.020,151.280 5.200,150.400 5.200 C 149.520 5.200,148.800 5.380,148.800 5.600 C 148.800 5.820,148.170 6.000,147.400 6.000 C 146.630 6.000,146.000 6.180,146.000 6.400 C 146.000 6.620,145.370 6.800,144.600 6.800 C 143.830 6.800,143.200 6.980,143.200 7.200 C 143.200 7.420,142.570 7.600,141.800 7.600 C 141.030 7.600,140.400 7.780,140.400 8.000 C 140.400 8.220,139.956 8.400,139.414 8.400 C 138.482 8.400,135.553 9.228,133.800 9.987 C 133.360 10.177,132.145 10.567,131.100 10.854 C 130.055 11.140,129.200 11.515,129.200 11.687 C 129.200 11.859,128.838 12.000,128.395 12.000 C 127.952 12.000,127.187 12.208,126.695 12.462 C 124.818 13.433,124.393 13.600,123.805 13.600 C 123.472 13.600,123.200 13.780,123.200 14.000 C 123.200 14.220,122.851 14.400,122.424 14.400 C 121.997 14.400,121.536 14.580,121.400 14.800 C 121.264 15.020,120.713 15.200,120.176 15.200 C 119.639 15.200,119.200 15.380,119.200 15.600 C 119.200 15.820,118.840 16.000,118.400 16.000 C 117.960 16.000,117.600 16.180,117.600 16.400 C 117.600 16.620,117.240 16.800,116.800 16.800 C 116.360 16.800,116.000 16.980,116.000 17.200 C 116.000 17.420,115.640 17.600,115.200 17.600 C 114.760 17.600,114.400 17.780,114.400 18.000 C 114.400 18.220,113.950 18.400,113.400 18.400 C 112.850 18.400,112.400 18.580,112.400 18.800 C 112.400 19.020,112.040 19.200,111.600 19.200 C 111.160 19.200,110.800 19.380,110.800 19.600 C 110.800 19.820,110.440 20.000,110.000 20.000 C 109.560 20.000,109.200 20.180,109.200 20.400 C 109.200 20.620,108.840 20.800,108.400 20.800 C 107.960 20.800,107.600 20.980,107.600 21.200 C 107.600 21.420,107.364 21.600,107.075 21.600 C 106.787 21.600,106.164 21.960,105.692 22.400 C 105.220 22.840,104.556 23.200,104.217 23.200 C 103.878 23.200,103.600 23.380,103.600 23.600 C 103.600 23.820,103.240 24.000,102.800 24.000 C 102.360 24.000,102.000 24.180,102.000 24.400 C 102.000 24.620,101.758 24.800,101.461 24.800 C 100.869 24.800,99.451 25.511,97.000 27.038 C 96.120 27.586,95.085 28.137,94.700 28.264 C 94.315 28.390,94.000 28.652,94.000 28.847 C 94.000 29.041,93.730 29.200,93.400 29.200 C 93.070 29.200,92.800 29.358,92.800 29.551 C 92.800 29.745,92.260 30.127,91.600 30.400 C 90.940 30.673,90.400 31.055,90.400 31.249 C 90.400 31.442,90.164 31.600,89.875 31.600 C 89.587 31.600,88.964 31.960,88.492 32.400 C 88.020 32.840,87.491 33.200,87.317 33.201 C 87.143 33.201,86.370 33.741,85.600 34.400 C 84.830 35.059,84.015 35.599,83.788 35.599 C 83.562 35.600,83.117 35.960,82.800 36.400 C 82.483 36.840,82.020 37.200,81.771 37.200 C 81.522 37.200,80.754 37.740,80.063 38.400 C 79.372 39.060,78.652 39.600,78.463 39.600 C 78.274 39.600,77.554 40.140,76.863 40.800 C 76.172 41.460,75.508 42.000,75.387 42.000 C 75.149 42.000,74.474 42.530,73.081 43.809 C 72.596 44.253,71.570 45.059,70.800 45.598 C 70.030 46.137,68.557 47.438,67.526 48.489 C 66.495 49.540,65.460 50.400,65.226 50.400 C 64.992 50.400,64.800 50.584,64.800 50.809 C 64.800 51.033,64.356 51.420,63.813 51.667 C 63.269 51.915,62.920 52.271,63.036 52.458 C 63.152 52.646,63.051 52.800,62.810 52.800 C 62.570 52.800,61.743 53.430,60.973 54.200 C 60.203 54.970,59.672 55.600,59.793 55.600 C 59.914 55.600,59.092 56.455,57.965 57.500 C 54.272 60.927,51.816 63.428,50.800 64.799 C 50.250 65.541,49.078 66.879,48.195 67.774 C 47.312 68.668,46.146 70.030,45.603 70.800 C 45.061 71.570,44.253 72.596,43.809 73.081 C 42.530 74.474,42.000 75.149,42.000 75.387 C 42.000 75.508,41.460 76.172,40.800 76.863 C 40.140 77.554,39.600 78.274,39.600 78.463 C 39.600 78.652,39.060 79.372,38.400 80.063 C 37.740 80.754,37.200 81.522,37.200 81.771 C 37.200 82.020,36.840 82.483,36.400 82.800 C 35.960 83.117,35.600 83.562,35.599 83.788 C 35.599 84.015,35.059 84.830,34.400 85.600 C 33.741 86.370,33.201 87.143,33.201 87.317 C 33.200 87.491,32.840 88.020,32.400 88.492 C 31.960 88.964,31.600 89.587,31.600 89.875 C 31.600 90.164,31.442 90.400,31.249 90.400 C 31.055 90.400,30.673 90.940,30.400 91.600 C 30.127 92.260,29.745 92.800,29.551 92.800 C 29.358 92.800,29.200 93.070,29.200 93.400 C 29.200 93.730,29.058 94.000,28.884 94.000 C 28.710 94.000,28.069 94.945,27.461 96.100 C 26.852 97.255,26.018 98.740,25.606 99.400 C 25.195 100.060,24.845 100.915,24.829 101.300 C 24.813 101.685,24.620 102.000,24.400 102.000 C 24.180 102.000,24.000 102.360,24.000 102.800 C 24.000 103.240,23.820 103.600,23.600 103.600 C 23.380 103.600,23.200 103.878,23.200 104.217 C 23.200 104.556,22.840 105.220,22.400 105.692 C 21.960 106.164,21.600 106.787,21.600 107.075 C 21.600 107.364,21.420 107.600,21.200 107.600 C 20.980 107.600,20.800 107.960,20.800 108.400 C 20.800 108.840,20.620 109.200,20.400 109.200 C 20.180 109.200,20.000 109.560,20.000 110.000 C 20.000 110.440,19.820 110.800,19.600 110.800 C 19.380 110.800,19.200 111.160,19.200 111.600 C 19.200 112.040,19.020 112.400,18.800 112.400 C 18.580 112.400,18.400 112.749,18.400 113.176 C 18.400 113.603,18.220 114.064,18.000 114.200 C 17.780 114.336,17.600 114.797,17.600 115.224 C 17.600 115.651,17.420 116.000,17.200 116.000 C 16.980 116.000,16.800 116.360,16.800 116.800 C 16.800 117.240,16.620 117.600,16.400 117.600 C 16.180 117.600,16.000 117.960,16.000 118.400 C 16.000 118.840,15.820 119.200,15.600 119.200 C 15.380 119.200,15.200 119.639,15.200 120.176 C 15.200 120.713,15.020 121.264,14.800 121.400 C 14.580 121.536,14.400 121.997,14.400 122.424 C 14.400 122.851,14.220 123.200,14.000 123.200 C 13.780 123.200,13.600 123.549,13.600 123.976 C 13.600 124.403,13.456 124.842,13.279 124.951 C 13.103 125.060,12.710 126.061,12.407 127.175 C 12.104 128.289,11.708 129.200,11.528 129.200 C 11.347 129.200,11.200 129.639,11.200 130.176 C 11.200 130.713,11.020 131.264,10.800 131.400 C 10.580 131.536,10.400 131.999,10.400 132.429 C 10.400 132.859,10.226 133.523,10.013 133.905 C 9.373 135.053,8.400 138.361,8.400 139.390 C 8.400 139.920,8.220 140.464,8.000 140.600 C 7.780 140.736,7.600 141.377,7.600 142.024 C 7.600 142.671,7.420 143.200,7.200 143.200 C 6.980 143.200,6.800 143.830,6.800 144.600 C 6.800 145.370,6.620 146.000,6.400 146.000 C 6.180 146.000,6.000 146.630,6.000 147.400 C 6.000 148.170,5.820 148.800,5.600 148.800 C 5.380 148.800,5.200 149.520,5.200 150.400 C 5.200 151.280,5.020 152.000,4.800 152.000 C 4.580 152.000,4.400 152.799,4.400 153.776 C 4.400 154.753,4.220 155.664,4.000 155.800 C 3.780 155.936,3.600 156.857,3.600 157.847 C 3.600 158.945,3.444 159.551,3.200 159.400 C 2.954 159.248,2.800 159.921,2.800 161.153 C 2.800 162.253,2.620 163.264,2.400 163.400 C 2.180 163.536,2.000 164.717,2.000 166.024 C 2.000 167.341,1.822 168.400,1.600 168.400 C 1.372 168.400,1.200 169.589,1.200 171.167 C 1.200 173.024,1.036 173.988,0.700 174.100 C -0.032 174.344,-0.032 224.856,0.700 225.100 C 1.035 225.212,1.200 226.171,1.200 228.010 C 1.200 229.518,1.380 230.864,1.600 231.000 C 1.820 231.136,2.000 232.216,2.000 233.400 C 2.000 234.584,2.180 235.664,2.400 235.800 C 2.620 235.936,2.800 236.947,2.800 238.047 C 2.800 239.279,2.954 239.952,3.200 239.800 C 3.444 239.649,3.600 240.263,3.600 241.376 C 3.600 242.379,3.780 243.200,4.000 243.200 C 4.220 243.200,4.400 244.100,4.400 245.200 C 4.400 246.300,4.580 247.200,4.800 247.200 C 5.020 247.200,5.200 247.920,5.200 248.800 C 5.200 249.680,5.380 250.400,5.600 250.400 C 5.820 250.400,6.000 251.041,6.000 251.824 C 6.000 252.671,6.162 253.147,6.400 253.000 C 6.642 252.851,6.800 253.396,6.800 254.376 C 6.800 255.269,6.960 256.000,7.155 256.000 C 7.350 256.000,7.605 256.495,7.722 257.100 C 7.899 258.017,8.536 260.583,8.986 262.200 C 9.048 262.420,9.234 263.189,9.401 263.908 C 9.567 264.628,9.860 265.314,10.052 265.432 C 10.243 265.550,10.400 266.076,10.400 266.600 C 10.400 267.124,10.580 267.664,10.800 267.800 C 11.020 267.936,11.200 268.487,11.200 269.024 C 11.200 269.561,11.341 270.000,11.513 270.000 C 11.685 270.000,12.078 270.855,12.386 271.900 C 12.695 272.945,13.256 274.430,13.634 275.200 C 15.033 278.054,15.538 279.376,15.348 279.684 C 15.241 279.858,15.343 280.000,15.576 280.000 C 15.809 280.000,16.000 280.360,16.000 280.800 C 16.000 281.240,16.180 281.600,16.400 281.600 C 16.620 281.600,16.800 281.960,16.800 282.400 C 16.800 282.840,16.980 283.200,17.200 283.200 C 17.420 283.200,17.600 283.549,17.600 283.976 C 17.600 284.403,17.780 284.864,18.000 285.000 C 18.220 285.136,18.400 285.597,18.400 286.024 C 18.400 286.451,18.580 286.800,18.800 286.800 C 19.020 286.800,19.200 287.160,19.200 287.600 C 19.200 288.040,19.380 288.400,19.600 288.400 C 19.820 288.400,20.000 288.771,20.000 289.224 C 20.000 289.677,20.180 289.936,20.400 289.800 C 20.628 289.659,20.800 290.004,20.800 290.600 C 20.800 291.196,20.972 291.541,21.200 291.400 C 21.420 291.264,21.600 291.433,21.600 291.776 C 21.600 292.119,21.780 292.400,22.000 292.400 C 22.220 292.400,22.400 292.760,22.400 293.200 C 22.400 293.640,22.580 294.000,22.800 294.000 C 23.020 294.000,23.200 294.360,23.200 294.800 C 23.200 295.240,23.380 295.600,23.600 295.600 C 23.820 295.600,24.000 295.960,24.000 296.400 C 24.000 296.840,24.180 297.200,24.400 297.200 C 24.620 297.200,24.800 297.472,24.800 297.805 C 24.800 298.460,25.444 299.699,26.400 300.883 C 26.730 301.292,27.008 301.755,27.017 301.913 C 27.039 302.291,28.442 304.943,28.756 305.200 C 29.153 305.525,31.380 308.910,31.981 310.100 C 32.286 310.705,32.685 311.200,32.868 311.200 C 33.050 311.200,33.200 311.425,33.201 311.700 C 33.201 311.975,33.741 312.830,34.400 313.600 C 35.059 314.370,35.599 315.143,35.599 315.318 C 35.600 315.493,36.050 316.086,36.600 316.636 C 37.150 317.186,37.600 317.800,37.600 318.000 C 37.600 318.200,38.050 318.814,38.600 319.364 C 39.150 319.914,39.601 320.507,39.602 320.682 C 39.603 320.857,40.143 321.575,40.802 322.278 C 41.461 322.981,42.000 323.664,42.000 323.795 C 42.000 324.050,42.508 324.703,43.809 326.119 C 44.253 326.604,45.060 327.626,45.601 328.391 C 46.142 329.156,47.803 331.028,49.292 332.550 C 50.782 334.072,52.000 335.572,52.000 335.882 C 52.000 336.193,52.180 336.336,52.400 336.200 C 52.620 336.064,52.800 336.148,52.800 336.387 C 52.800 336.823,56.201 340.419,56.461 340.258 C 56.538 340.211,57.352 340.943,58.272 341.886 C 59.191 342.829,59.858 343.600,59.754 343.600 C 59.649 343.600,60.014 344.050,60.564 344.600 C 61.114 345.150,61.762 345.600,62.005 345.600 C 62.248 345.600,62.336 345.780,62.200 346.000 C 62.064 346.220,62.143 346.400,62.376 346.400 C 62.876 346.400,63.421 346.861,66.944 350.256 C 68.401 351.659,69.729 352.846,69.896 352.893 C 70.266 352.998,71.168 353.729,73.346 355.689 C 74.256 356.508,75.181 357.183,75.401 357.189 C 75.622 357.195,76.312 357.740,76.935 358.400 C 77.558 359.060,78.241 359.600,78.452 359.600 C 78.663 359.600,79.286 360.050,79.836 360.600 C 80.386 361.150,81.000 361.600,81.200 361.600 C 81.400 361.600,82.014 362.050,82.564 362.600 C 83.114 363.150,83.707 363.600,83.882 363.601 C 84.057 363.601,84.830 364.141,85.600 364.800 C 86.370 365.459,87.143 365.999,87.317 365.999 C 87.491 366.000,88.020 366.360,88.492 366.800 C 88.964 367.240,89.587 367.600,89.875 367.600 C 90.164 367.600,90.400 367.780,90.400 368.000 C 90.400 368.220,90.678 368.400,91.017 368.400 C 91.356 368.400,92.020 368.760,92.492 369.200 C 92.964 369.640,93.587 370.000,93.875 370.000 C 94.164 370.000,94.400 370.147,94.400 370.326 C 94.400 370.506,95.165 371.077,96.100 371.597 C 97.035 372.116,97.890 372.648,98.000 372.780 C 98.377 373.232,102.474 375.200,103.037 375.200 C 103.347 375.200,103.600 375.380,103.600 375.600 C 103.600 375.820,103.960 376.000,104.400 376.000 C 104.840 376.000,105.200 376.180,105.200 376.400 C 105.200 376.620,105.520 376.800,105.912 376.800 C 106.303 376.800,106.883 377.160,107.200 377.600 C 107.517 378.040,108.197 378.400,108.712 378.400 C 109.234 378.400,109.538 378.577,109.400 378.800 C 109.264 379.020,109.523 379.200,109.976 379.200 C 110.429 379.200,110.800 379.380,110.800 379.600 C 110.800 379.820,111.160 380.000,111.600 380.000 C 112.040 380.000,112.400 380.180,112.400 380.400 C 112.400 380.620,112.749 380.800,113.176 380.800 C 113.603 380.800,114.064 380.980,114.200 381.200 C 114.336 381.420,114.797 381.600,115.224 381.600 C 115.651 381.600,116.000 381.780,116.000 382.000 C 116.000 382.220,116.360 382.400,116.800 382.400 C 117.240 382.400,117.600 382.580,117.600 382.800 C 117.600 383.020,117.960 383.200,118.400 383.200 C 118.840 383.200,119.200 383.380,119.200 383.600 C 119.200 383.820,119.639 384.000,120.176 384.000 C 120.713 384.000,121.264 384.180,121.400 384.400 C 121.536 384.620,121.982 384.800,122.390 384.800 C 122.799 384.800,123.193 384.935,123.267 385.100 C 123.409 385.419,126.796 386.762,128.300 387.094 C 128.795 387.204,129.200 387.452,129.200 387.647 C 129.200 387.841,129.652 388.000,130.205 388.000 C 130.758 388.000,131.523 388.159,131.905 388.353 C 133.329 389.078,134.650 389.577,136.400 390.052 C 137.390 390.320,138.392 390.683,138.626 390.858 C 138.861 391.033,140.071 391.295,141.317 391.442 C 142.562 391.588,143.484 391.864,143.367 392.054 C 143.249 392.244,143.894 392.400,144.800 392.400 C 145.796 392.400,146.350 392.558,146.200 392.800 C 146.053 393.038,146.529 393.200,147.376 393.200 C 148.159 393.200,148.800 393.380,148.800 393.600 C 148.800 393.820,149.520 394.000,150.400 394.000 C 151.280 394.000,152.000 394.180,152.000 394.400 C 152.000 394.620,152.900 394.800,154.000 394.800 C 155.100 394.800,156.000 394.980,156.000 395.200 C 156.000 395.420,156.821 395.600,157.824 395.600 C 158.937 395.600,159.551 395.756,159.400 396.000 C 159.248 396.246,159.921 396.400,161.153 396.400 C 162.253 396.400,163.264 396.580,163.400 396.800 C 163.536 397.020,164.717 397.200,166.024 397.200 C 167.341 397.200,168.400 397.378,168.400 397.600 C 168.400 397.829,169.600 398.000,171.200 398.000 C 172.740 398.000,174.000 398.168,174.000 398.373 C 174.000 398.999,181.377 399.253,199.600 399.253 C 217.823 399.253,225.200 398.999,225.200 398.373 C 225.200 398.168,226.460 398.000,228.000 398.000 C 229.600 398.000,230.800 397.829,230.800 397.600 C 230.800 397.378,231.859 397.200,233.176 397.200 C 234.483 397.200,235.664 397.020,235.800 396.800 C 235.936 396.580,236.947 396.400,238.047 396.400 C 239.279 396.400,239.952 396.246,239.800 396.000 C 239.649 395.756,240.263 395.600,241.376 395.600 C 242.379 395.600,243.200 395.420,243.200 395.200 C 243.200 394.980,244.100 394.800,245.200 394.800 C 246.300 394.800,247.200 394.620,247.200 394.400 C 247.200 394.180,247.920 394.000,248.800 394.000 C 249.680 394.000,250.400 393.820,250.400 393.600 C 250.400 393.380,251.041 393.200,251.824 393.200 C 252.671 393.200,253.147 393.038,253.000 392.800 C 252.851 392.558,253.396 392.400,254.376 392.400 C 255.269 392.400,256.000 392.240,256.000 392.045 C 256.000 391.850,256.855 391.549,257.900 391.375 C 259.950 391.035,259.911 391.044,260.800 390.696 C 261.130 390.567,262.120 390.255,263.000 390.003 C 264.619 389.539,266.027 388.998,267.295 388.353 C 267.677 388.159,268.442 388.000,268.995 388.000 C 269.548 388.000,270.000 387.853,270.000 387.672 C 270.000 387.492,270.911 387.096,272.025 386.793 C 273.139 386.490,274.140 386.097,274.249 385.921 C 274.358 385.744,274.797 385.600,275.224 385.600 C 275.651 385.600,276.000 385.420,276.000 385.200 C 276.000 384.980,276.349 384.800,276.776 384.800 C 277.203 384.800,277.664 384.620,277.800 384.400 C 277.936 384.180,278.487 384.000,279.024 384.000 C 279.561 384.000,280.000 383.820,280.000 383.600 C 280.000 383.380,280.360 383.200,280.800 383.200 C 281.240 383.200,281.600 383.020,281.600 382.800 C 281.600 382.580,281.960 382.400,282.400 382.400 C 282.840 382.400,283.200 382.220,283.200 382.000 C 283.200 381.780,283.549 381.600,283.976 381.600 C 284.403 381.600,284.864 381.420,285.000 381.200 C 285.136 380.980,285.597 380.800,286.024 380.800 C 286.451 380.800,286.800 380.620,286.800 380.400 C 286.800 380.180,287.160 380.000,287.600 380.000 C 288.040 380.000,288.400 379.820,288.400 379.600 C 288.400 379.380,288.760 379.200,289.200 379.200 C 289.640 379.200,290.000 379.020,290.000 378.800 C 290.000 378.580,290.320 378.400,290.712 378.400 C 291.103 378.400,291.683 378.040,292.000 377.600 C 292.317 377.160,292.897 376.800,293.288 376.800 C 293.680 376.800,294.000 376.620,294.000 376.400 C 294.000 376.180,294.360 376.000,294.800 376.000 C 295.240 376.000,295.600 375.820,295.600 375.600 C 295.600 375.380,295.817 375.200,296.082 375.200 C 296.758 375.200,301.200 373.116,301.200 372.798 C 301.200 372.654,302.100 372.115,303.200 371.600 C 304.300 371.085,305.200 370.536,305.200 370.380 C 305.200 370.224,305.740 369.873,306.400 369.600 C 307.060 369.327,307.600 368.945,307.600 368.751 C 307.600 368.558,307.870 368.400,308.200 368.400 C 308.530 368.400,308.800 368.220,308.800 368.000 C 308.800 367.780,309.036 367.600,309.325 367.600 C 309.613 367.600,310.236 367.240,310.708 366.800 C 311.180 366.360,311.709 366.000,311.883 365.999 C 312.057 365.999,312.830 365.459,313.600 364.800 C 314.370 364.141,315.143 363.601,315.318 363.601 C 315.493 363.600,316.086 363.150,316.636 362.600 C 317.186 362.050,317.800 361.600,318.000 361.600 C 318.200 361.600,318.814 361.150,319.364 360.600 C 319.914 360.050,320.542 359.600,320.759 359.600 C 320.977 359.600,321.390 359.285,321.677 358.900 C 321.965 358.515,322.650 357.966,323.200 357.679 C 323.750 357.393,324.936 356.493,325.835 355.679 C 326.734 354.866,328.069 353.750,328.802 353.200 C 329.536 352.650,331.182 351.178,332.461 349.929 C 333.739 348.680,335.151 347.542,335.599 347.400 C 336.046 347.259,336.308 346.975,336.182 346.771 C 336.056 346.567,336.148 346.400,336.387 346.400 C 336.626 346.400,337.631 345.590,338.621 344.600 C 339.611 343.610,340.342 342.800,340.245 342.800 C 340.148 342.800,340.638 342.212,341.334 341.493 C 342.030 340.774,342.662 340.221,342.739 340.265 C 343.003 340.416,346.400 336.819,346.400 336.387 C 346.400 336.148,346.580 336.064,346.800 336.200 C 347.020 336.336,347.200 336.167,347.200 335.824 C 347.200 335.481,347.380 335.200,347.600 335.200 C 347.820 335.200,348.000 335.036,348.000 334.835 C 348.000 334.635,348.976 333.471,350.169 332.249 C 351.362 331.027,352.847 329.346,353.468 328.514 C 354.089 327.681,355.182 326.370,355.895 325.600 C 356.609 324.830,357.195 324.055,357.197 323.878 C 357.198 323.701,357.739 322.981,358.398 322.278 C 359.057 321.575,359.597 320.857,359.598 320.682 C 359.599 320.507,360.050 319.914,360.600 319.364 C 361.150 318.814,361.600 318.200,361.600 318.000 C 361.600 317.800,362.050 317.186,362.600 316.636 C 363.150 316.086,363.600 315.493,363.601 315.318 C 363.601 315.143,364.141 314.370,364.800 313.600 C 365.459 312.830,365.999 312.057,365.999 311.883 C 366.000 311.709,366.360 311.180,366.800 310.708 C 367.240 310.236,367.600 309.613,367.600 309.325 C 367.600 309.036,367.780 308.800,368.000 308.800 C 368.220 308.800,368.400 308.612,368.400 308.383 C 368.400 308.154,368.760 307.580,369.200 307.108 C 369.640 306.636,370.000 306.013,370.000 305.725 C 370.000 305.436,370.149 305.200,370.332 305.200 C 370.514 305.200,371.085 304.300,371.600 303.200 C 372.115 302.100,372.653 301.200,372.794 301.200 C 373.141 301.200,374.400 298.523,374.400 297.786 C 374.400 297.464,374.580 297.200,374.800 297.200 C 375.020 297.200,375.200 296.840,375.200 296.400 C 375.200 295.960,375.380 295.600,375.600 295.600 C 375.820 295.600,376.000 295.240,376.000 294.800 C 376.000 294.360,376.180 294.000,376.400 294.000 C 376.620 294.000,376.800 293.680,376.800 293.288 C 376.800 292.897,377.160 292.317,377.600 292.000 C 378.040 291.683,378.400 291.003,378.400 290.488 C 378.400 289.966,378.577 289.662,378.800 289.800 C 379.020 289.936,379.200 289.677,379.200 289.224 C 379.200 288.771,379.380 288.400,379.600 288.400 C 379.820 288.400,380.000 288.040,380.000 287.600 C 380.000 287.160,380.180 286.800,380.400 286.800 C 380.620 286.800,380.800 286.451,380.800 286.024 C 380.800 285.597,380.980 285.136,381.200 285.000 C 381.420 284.864,381.600 284.403,381.600 283.976 C 381.600 283.549,381.780 283.200,382.000 283.200 C 382.220 283.200,382.400 282.840,382.400 282.400 C 382.400 281.960,382.580 281.600,382.800 281.600 C 383.020 281.600,383.200 281.240,383.200 280.800 C 383.200 280.360,383.380 280.000,383.600 280.000 C 383.820 280.000,384.000 279.561,384.000 279.024 C 384.000 278.487,384.180 277.936,384.400 277.800 C 384.620 277.664,384.800 277.203,384.800 276.776 C 384.800 276.349,384.980 276.000,385.200 276.000 C 385.420 276.000,385.600 275.651,385.600 275.224 C 385.600 274.797,385.744 274.358,385.921 274.249 C 386.097 274.140,386.490 273.139,386.793 272.025 C 387.096 270.911,387.492 270.000,387.672 270.000 C 387.853 270.000,388.000 269.548,388.000 268.995 C 388.000 268.442,388.159 267.677,388.353 267.295 C 388.973 266.076,389.524 264.659,390.255 262.400 C 391.135 259.681,391.016 260.176,391.387 257.708 C 391.560 256.557,391.858 255.712,392.051 255.831 C 392.243 255.950,392.400 255.306,392.400 254.400 C 392.400 253.404,392.558 252.850,392.800 253.000 C 393.038 253.147,393.200 252.671,393.200 251.824 C 393.200 251.041,393.380 250.400,393.600 250.400 C 393.820 250.400,394.000 249.680,394.000 248.800 C 394.000 247.920,394.180 247.200,394.400 247.200 C 394.620 247.200,394.800 246.300,394.800 245.200 C 394.800 244.100,394.980 243.200,395.200 243.200 C 395.420 243.200,395.600 242.379,395.600 241.376 C 395.600 240.263,395.756 239.649,396.000 239.800 C 396.246 239.952,396.400 239.279,396.400 238.047 C 396.400 236.947,396.580 235.936,396.800 235.800 C 397.020 235.664,397.200 234.584,397.200 233.400 C 397.200 232.216,397.380 231.136,397.600 231.000 C 397.820 230.864,398.000 229.503,398.000 227.976 C 398.000 226.392,398.172 225.200,398.400 225.200 C 398.638 225.200,398.800 223.675,398.800 221.424 C 398.800 219.337,398.979 217.537,399.200 217.400 C 399.749 217.061,399.749 182.139,399.200 181.800 C 398.979 181.663,398.800 179.863,398.800 177.776 C 398.800 175.525,398.638 174.000,398.400 174.000 C 398.173 174.000,398.000 172.827,398.000 171.280 C 398.000 169.784,397.837 168.389,397.637 168.180 C 397.300 167.828,397.177 167.045,396.554 161.299 C 396.428 160.144,396.163 159.300,395.963 159.423 C 395.763 159.546,395.600 158.827,395.600 157.824 C 395.600 156.821,395.420 156.000,395.200 156.000 C 394.980 156.000,394.800 155.089,394.800 153.976 C 394.800 152.729,394.647 152.048,394.400 152.200 C 394.156 152.351,394.000 151.737,394.000 150.624 C 394.000 149.621,393.820 148.800,393.600 148.800 C 393.380 148.800,393.200 148.159,393.200 147.376 C 393.200 146.529,393.038 146.053,392.800 146.200 C 392.562 146.347,392.400 145.871,392.400 145.024 C 392.400 144.241,392.243 143.600,392.052 143.600 C 391.861 143.600,391.600 142.835,391.472 141.900 C 391.227 140.101,391.064 139.374,390.691 138.400 C 390.564 138.070,390.255 137.080,390.003 136.200 C 389.539 134.581,388.998 133.173,388.353 131.905 C 388.159 131.523,388.000 130.758,388.000 130.205 C 388.000 129.652,387.853 129.200,387.672 129.200 C 387.492 129.200,387.096 128.289,386.793 127.175 C 386.490 126.061,386.097 125.060,385.921 124.951 C 385.744 124.842,385.600 124.403,385.600 123.976 C 385.600 123.549,385.420 123.200,385.200 123.200 C 384.980 123.200,384.800 122.851,384.800 122.424 C 384.800 121.997,384.620 121.536,384.400 121.400 C 384.180 121.264,384.000 120.713,384.000 120.176 C 384.000 119.639,383.865 119.199,383.700 119.197 C 383.341 119.193,382.400 117.256,382.400 116.520 C 382.400 116.234,382.220 116.000,382.000 116.000 C 381.780 116.000,381.600 115.651,381.600 115.224 C 381.600 114.797,381.420 114.336,381.200 114.200 C 380.980 114.064,380.800 113.603,380.800 113.176 C 380.800 112.749,380.620 112.400,380.400 112.400 C 380.180 112.400,380.000 112.040,380.000 111.600 C 380.000 111.160,379.820 110.800,379.600 110.800 C 379.380 110.800,379.200 110.429,379.200 109.976 C 379.200 109.523,379.020 109.264,378.800 109.400 C 378.445 109.619,378.205 108.778,378.363 107.870 C 378.394 107.689,378.235 107.655,378.010 107.794 C 377.784 107.933,377.600 107.767,377.600 107.424 C 377.600 107.081,377.420 106.800,377.200 106.800 C 376.980 106.800,376.800 106.440,376.800 106.000 C 376.800 105.560,376.620 105.200,376.400 105.200 C 376.180 105.200,376.000 104.840,376.000 104.400 C 376.000 103.960,375.820 103.600,375.600 103.600 C 375.380 103.600,375.200 103.364,375.200 103.075 C 375.200 102.491,373.382 98.588,372.773 97.863 C 372.559 97.608,371.645 96.230,370.743 94.800 C 369.840 93.370,368.944 92.140,368.751 92.067 C 368.558 91.993,368.400 91.588,368.400 91.167 C 368.400 90.745,368.220 90.400,368.000 90.400 C 367.780 90.400,367.600 90.164,367.600 89.875 C 367.600 89.587,367.240 88.964,366.800 88.492 C 366.360 88.020,366.000 87.491,365.999 87.317 C 365.999 87.143,365.459 86.370,364.800 85.600 C 364.141 84.830,363.601 84.015,363.601 83.788 C 363.600 83.562,363.240 83.117,362.800 82.800 C 362.360 82.483,362.000 82.020,362.000 81.771 C 362.000 81.522,361.460 80.754,360.800 80.063 C 360.140 79.372,359.600 78.641,359.600 78.438 C 359.600 78.234,359.060 77.558,358.400 76.935 C 357.740 76.312,357.198 75.622,357.197 75.401 C 357.195 75.181,356.603 74.370,355.882 73.600 C 355.161 72.830,354.129 71.570,353.588 70.800 C 353.048 70.030,351.488 68.265,350.123 66.879 C 348.758 65.492,347.528 64.005,347.391 63.573 C 347.254 63.141,346.975 62.892,346.771 63.018 C 346.567 63.144,346.400 63.051,346.400 62.810 C 346.400 62.570,345.770 61.743,345.000 60.973 C 344.230 60.203,343.600 59.657,343.600 59.759 C 343.600 59.860,342.829 59.191,341.886 58.272 C 340.943 57.352,340.211 56.538,340.258 56.461 C 340.419 56.201,336.823 52.800,336.387 52.800 C 336.148 52.800,336.056 52.633,336.182 52.429 C 336.308 52.225,336.036 51.938,335.577 51.793 C 335.118 51.647,333.631 50.417,332.271 49.060 C 330.912 47.702,329.170 46.148,328.400 45.605 C 327.630 45.062,326.604 44.253,326.119 43.809 C 324.726 42.530,324.051 42.000,323.813 42.000 C 323.692 42.000,323.028 41.460,322.337 40.800 C 321.646 40.140,320.926 39.600,320.737 39.600 C 320.548 39.600,319.828 39.060,319.137 38.400 C 318.446 37.740,317.678 37.200,317.429 37.200 C 317.180 37.200,316.717 36.840,316.400 36.400 C 316.083 35.960,315.638 35.600,315.412 35.599 C 315.185 35.599,314.370 35.059,313.600 34.400 C 312.830 33.741,312.057 33.201,311.883 33.201 C 311.709 33.200,311.180 32.840,310.708 32.400 C 310.236 31.960,309.613 31.600,309.325 31.600 C 309.036 31.600,308.800 31.453,308.800 31.274 C 308.800 31.094,308.035 30.523,307.100 30.003 C 306.165 29.484,305.310 28.934,305.200 28.781 C 305.090 28.628,304.010 27.994,302.800 27.372 C 301.590 26.750,300.510 26.142,300.400 26.020 C 299.972 25.548,298.381 24.800,297.805 24.800 C 297.472 24.800,297.200 24.620,297.200 24.400 C 297.200 24.180,296.840 24.000,296.400 24.000 C 295.960 24.000,295.600 23.820,295.600 23.600 C 295.600 23.380,295.322 23.200,294.983 23.200 C 294.644 23.200,293.980 22.840,293.508 22.400 C 293.036 21.960,292.413 21.600,292.125 21.600 C 291.836 21.600,291.600 21.420,291.600 21.200 C 291.600 20.980,291.240 20.800,290.800 20.800 C 290.360 20.800,290.000 20.620,290.000 20.400 C 290.000 20.180,289.640 20.000,289.200 20.000 C 288.760 20.000,288.400 19.820,288.400 19.600 C 288.400 19.380,287.950 19.200,287.400 19.200 C 286.850 19.200,286.400 19.020,286.400 18.800 C 286.400 18.580,286.040 18.400,285.600 18.400 C 285.160 18.400,284.800 18.220,284.800 18.000 C 284.800 17.780,284.440 17.600,284.000 17.600 C 283.560 17.600,283.200 17.420,283.200 17.200 C 283.200 16.980,282.840 16.800,282.400 16.800 C 281.960 16.800,281.600 16.620,281.600 16.400 C 281.600 16.180,281.240 16.000,280.800 16.000 C 280.360 16.000,280.000 15.820,280.000 15.600 C 280.000 15.380,279.561 15.200,279.024 15.200 C 278.487 15.200,277.936 15.020,277.800 14.800 C 277.664 14.580,277.203 14.400,276.776 14.400 C 276.349 14.400,276.000 14.220,276.000 14.000 C 276.000 13.780,275.651 13.600,275.224 13.600 C 274.797 13.600,274.358 13.456,274.249 13.279 C 274.140 13.103,273.139 12.710,272.025 12.407 C 270.911 12.104,270.000 11.708,270.000 11.528 C 270.000 11.347,269.561 11.200,269.024 11.200 C 268.487 11.200,267.936 11.020,267.800 10.800 C 267.664 10.580,267.124 10.400,266.600 10.400 C 266.076 10.400,265.550 10.243,265.432 10.052 C 265.314 9.860,264.628 9.567,263.908 9.401 C 263.189 9.234,262.330 9.015,262.000 8.913 C 261.670 8.811,260.815 8.635,260.100 8.520 C 259.385 8.406,258.800 8.152,258.800 7.956 C 258.800 7.760,258.170 7.600,257.400 7.600 C 256.630 7.600,256.000 7.420,256.000 7.200 C 256.000 6.980,255.370 6.800,254.600 6.800 C 253.830 6.800,253.200 6.620,253.200 6.400 C 253.200 6.180,252.570 6.000,251.800 6.000 C 251.030 6.000,250.400 5.820,250.400 5.600 C 250.400 5.380,249.680 5.200,248.800 5.200 C 247.920 5.200,247.200 5.020,247.200 4.800 C 247.200 4.580,246.300 4.400,245.200 4.400 C 244.100 4.400,243.200 4.220,243.200 4.000 C 243.200 3.780,242.480 3.600,241.600 3.600 C 240.720 3.600,240.000 3.420,240.000 3.200 C 240.000 2.980,239.010 2.800,237.800 2.800 C 236.590 2.800,235.600 2.620,235.600 2.400 C 235.600 2.178,234.533 2.000,233.200 2.000 C 231.867 2.000,230.800 1.822,230.800 1.600 C 230.800 1.372,229.611 1.200,228.033 1.200 C 226.235 1.200,225.211 1.032,225.106 0.719 C 224.947 0.242,188.204 -0.107,178.100 0.274 M228.428 74.500 C 230.250 75.064,233.503 77.389,234.164 78.600 C 234.404 79.040,234.691 79.490,234.802 79.600 C 235.863 80.650,236.534 89.223,235.600 89.800 C 235.380 89.936,235.200 90.397,235.200 90.824 C 235.200 91.251,235.020 91.600,234.800 91.600 C 234.580 91.600,234.400 91.853,234.400 92.163 C 234.400 93.084,230.646 96.161,228.864 96.700 C 227.780 97.028,224.464 97.200,219.206 97.200 L 211.200 97.200 211.200 111.761 L 211.200 126.323 213.100 126.540 C 214.145 126.659,216.080 126.954,217.400 127.194 C 218.720 127.435,220.520 127.733,221.400 127.857 C 222.280 127.981,223.171 128.244,223.380 128.441 C 223.589 128.638,224.343 128.800,225.056 128.800 C 225.769 128.800,226.464 128.980,226.600 129.200 C 226.736 129.420,227.210 129.600,227.653 129.600 C 229.367 129.600,239.655 133.436,245.279 136.172 C 250.029 138.483,249.252 138.800,253.200 132.933 C 255.070 130.154,256.780 127.682,257.000 127.440 C 257.220 127.198,257.655 126.505,257.968 125.900 C 258.280 125.295,258.685 124.800,258.868 124.800 C 259.050 124.800,259.200 124.552,259.200 124.249 C 259.200 123.946,259.472 123.472,259.805 123.196 C 260.138 122.920,260.945 121.572,261.600 120.200 C 262.255 118.828,263.062 117.480,263.395 117.204 C 263.728 116.928,264.000 116.468,264.000 116.183 C 264.000 115.379,268.771 110.800,269.608 110.800 C 270.018 110.800,270.464 110.620,270.600 110.400 C 271.156 109.501,276.667 109.943,278.686 111.048 C 285.580 114.824,286.914 121.331,282.297 128.659 C 280.281 131.858,277.490 135.786,277.128 135.933 C 276.947 136.007,276.800 136.288,276.800 136.558 C 276.800 136.828,276.485 137.398,276.100 137.825 C 275.715 138.251,275.145 139.095,274.832 139.700 C 274.520 140.305,274.115 140.800,273.932 140.800 C 273.750 140.800,273.600 141.036,273.600 141.325 C 273.600 141.613,273.285 142.208,272.900 142.646 C 272.515 143.085,272.020 143.723,271.800 144.065 C 271.580 144.407,270.471 146.084,269.336 147.791 L 267.273 150.895 269.536 152.788 C 273.074 155.746,278.547 161.935,283.000 168.011 C 284.803 170.472,287.600 174.851,287.600 175.212 C 287.600 175.426,287.745 175.600,287.921 175.600 C 288.098 175.600,288.683 176.497,289.221 177.594 C 289.760 178.690,290.335 179.590,290.500 179.594 C 290.665 179.597,290.800 179.960,290.800 180.400 C 290.800 180.840,290.980 181.200,291.200 181.200 C 291.420 181.200,291.600 181.560,291.600 182.000 C 291.600 182.440,291.780 182.800,292.000 182.800 C 292.220 182.800,292.400 183.160,292.400 183.600 C 292.400 184.040,292.580 184.400,292.800 184.400 C 293.020 184.400,293.200 184.653,293.200 184.962 C 293.200 185.271,293.586 186.306,294.057 187.262 C 294.528 188.218,295.092 189.450,295.310 190.000 C 295.529 190.550,295.884 191.450,296.100 192.000 C 296.316 192.550,296.652 193.313,296.847 193.695 C 297.041 194.077,297.200 194.664,297.200 195.000 C 297.200 195.336,297.365 195.923,297.566 196.305 C 301.068 202.947,303.574 228.098,302.000 240.800 C 301.182 247.407,300.437 251.165,298.792 257.000 C 298.606 257.660,298.337 258.650,298.194 259.200 C 298.050 259.750,297.786 260.560,297.607 261.000 C 297.428 261.440,297.064 262.430,296.800 263.200 C 295.641 266.574,295.239 267.491,291.967 274.200 C 290.357 277.500,288.537 280.952,287.920 281.872 C 287.304 282.792,286.800 283.709,286.800 283.910 C 286.800 284.111,286.440 284.602,286.000 285.000 C 285.560 285.398,285.200 285.895,285.200 286.104 C 285.200 286.313,284.795 286.994,284.300 287.617 C 283.805 288.240,282.772 289.616,282.004 290.675 C 275.846 299.167,265.453 308.846,255.562 315.300 C 251.656 317.849,238.825 324.400,237.738 324.400 C 237.436 324.400,236.877 324.559,236.495 324.753 C 234.237 325.902,229.227 327.600,228.097 327.600 C 227.630 327.600,227.136 327.780,227.000 328.000 C 226.864 328.220,226.234 328.400,225.600 328.400 C 224.966 328.400,224.348 328.561,224.226 328.758 C 224.105 328.955,223.329 329.217,222.503 329.342 C 221.676 329.467,219.920 329.754,218.600 329.980 C 211.678 331.168,208.741 331.389,200.000 331.383 C 191.283 331.376,187.591 331.101,181.400 329.997 C 180.080 329.761,178.324 329.467,177.497 329.342 C 176.671 329.217,175.895 328.955,175.774 328.758 C 175.652 328.561,175.034 328.400,174.400 328.400 C 173.766 328.400,173.136 328.220,173.000 328.000 C 172.864 327.780,172.370 327.600,171.903 327.600 C 170.773 327.600,165.763 325.902,163.505 324.753 C 163.123 324.559,162.564 324.400,162.262 324.400 C 161.175 324.400,148.344 317.849,144.438 315.300 C 134.421 308.764,125.619 300.588,118.328 291.049 C 117.299 289.702,116.084 288.122,115.628 287.537 C 115.173 286.952,114.800 286.305,114.800 286.099 C 114.800 285.893,114.440 285.398,114.000 285.000 C 113.560 284.602,113.200 284.111,113.200 283.910 C 113.200 283.709,112.696 282.792,112.080 281.872 C 111.078 280.377,105.649 269.578,104.754 267.300 C 104.559 266.805,104.238 265.995,104.040 265.500 C 103.843 265.005,103.464 263.970,103.200 263.200 C 102.936 262.430,102.572 261.440,102.393 261.000 C 102.214 260.560,101.950 259.750,101.806 259.200 C 101.663 258.650,101.394 257.660,101.208 257.000 C 100.085 253.017,99.617 250.992,99.035 247.600 C 98.676 245.510,98.324 242.990,98.253 242.000 C 98.182 241.010,97.998 239.913,97.843 239.563 C 97.200 238.103,98.043 212.796,98.767 211.800 C 98.927 211.580,99.095 210.793,99.139 210.050 C 99.242 208.332,100.526 202.630,101.627 199.000 C 102.094 197.460,102.571 195.792,102.686 195.294 C 102.801 194.796,103.054 194.290,103.248 194.170 C 103.441 194.051,103.600 193.691,103.600 193.372 C 103.600 193.053,103.943 192.028,104.362 191.096 C 104.780 190.163,105.455 188.596,105.862 187.613 C 106.854 185.213,110.800 177.454,111.157 177.201 C 111.314 177.091,111.744 176.350,112.113 175.555 C 112.483 174.760,113.059 173.883,113.393 173.606 C 113.727 173.329,114.000 172.882,114.000 172.613 C 114.000 172.344,114.360 171.798,114.800 171.400 C 115.240 171.002,115.600 170.526,115.600 170.342 C 115.600 170.159,116.455 168.909,117.500 167.565 C 118.545 166.222,119.792 164.555,120.272 163.861 C 120.751 163.167,123.223 160.440,125.765 157.800 C 129.815 153.594,131.199 151.600,130.068 151.600 C 129.885 151.600,129.480 151.105,129.168 150.500 C 128.855 149.895,128.285 149.051,127.900 148.625 C 127.515 148.198,127.200 147.613,127.200 147.325 C 127.200 147.036,127.020 146.800,126.800 146.800 C 126.580 146.800,126.400 146.564,126.400 146.275 C 126.400 145.987,126.040 145.364,125.600 144.892 C 125.160 144.420,124.800 143.942,124.800 143.831 C 124.800 143.719,123.630 141.842,122.200 139.659 C 120.770 137.477,119.600 135.519,119.600 135.308 C 119.600 135.097,119.240 134.598,118.800 134.200 C 118.360 133.802,118.000 133.337,118.000 133.167 C 118.000 132.998,117.100 131.500,116.000 129.839 C 114.900 128.178,114.000 126.555,114.000 126.233 C 114.000 125.911,113.820 125.536,113.600 125.400 C 113.380 125.264,113.200 123.914,113.200 122.400 C 113.200 120.886,113.380 119.536,113.600 119.400 C 113.820 119.264,114.000 118.823,114.000 118.420 C 114.000 117.350,117.430 113.708,119.135 112.968 C 119.941 112.619,120.913 112.168,121.295 111.966 C 122.231 111.472,126.690 111.499,127.000 112.000 C 127.136 112.220,127.510 112.400,127.832 112.400 C 129.504 112.400,135.200 118.533,135.200 120.333 C 135.200 120.522,135.560 121.002,136.000 121.400 C 136.440 121.798,136.800 122.338,136.800 122.600 C 136.800 122.862,137.160 123.402,137.600 123.800 C 138.040 124.198,138.400 124.684,138.400 124.880 C 138.400 125.076,139.300 126.570,140.400 128.200 C 141.500 129.830,142.400 131.352,142.400 131.582 C 142.400 131.812,142.558 132.000,142.750 132.000 C 142.943 132.000,143.350 132.495,143.655 133.100 C 146.398 138.534,148.117 140.115,149.938 138.879 C 151.630 137.731,155.506 135.820,159.400 134.215 C 161.380 133.399,163.360 132.576,163.800 132.386 C 164.240 132.196,165.860 131.648,167.400 131.168 C 168.940 130.688,170.560 130.159,171.000 129.993 C 171.440 129.827,172.610 129.478,173.600 129.218 C 174.590 128.959,175.953 128.578,176.628 128.373 C 177.304 128.168,178.393 128.000,179.048 128.000 C 179.704 128.000,180.411 127.837,180.620 127.637 C 180.972 127.300,181.754 127.177,187.500 126.554 L 189.600 126.326 189.600 111.763 L 189.600 97.200 182.020 97.200 C 169.849 97.200,166.699 95.834,164.506 89.603 C 163.914 87.921,163.834 81.750,164.400 81.400 C 164.620 81.264,164.800 80.803,164.800 80.376 C 164.800 79.949,164.980 79.600,165.200 79.600 C 165.420 79.600,165.600 79.375,165.600 79.100 C 165.601 78.132,167.571 76.326,169.873 75.182 L 172.200 74.025 199.506 74.013 C 220.253 74.003,227.201 74.120,228.428 74.500 M193.600 146.999 C 190.630 147.265,187.480 147.608,186.600 147.761 C 183.340 148.331,175.777 150.094,175.105 150.441 C 174.723 150.638,174.172 150.800,173.881 150.800 C 173.589 150.800,172.605 151.160,171.694 151.600 C 170.784 152.040,169.867 152.400,169.657 152.400 C 169.447 152.400,168.584 152.739,167.738 153.153 C 166.892 153.567,165.300 154.325,164.200 154.837 C 163.100 155.350,161.480 156.231,160.600 156.797 C 159.720 157.362,158.460 158.089,157.800 158.412 C 157.140 158.736,156.251 159.315,155.825 159.700 C 155.398 160.085,154.937 160.400,154.801 160.400 C 154.664 160.400,153.653 161.267,152.553 162.327 C 151.454 163.387,149.731 164.652,148.725 165.139 C 146.871 166.037,137.893 174.967,135.400 178.393 C 134.740 179.300,133.705 180.641,133.100 181.374 C 132.495 182.106,132.000 182.802,132.000 182.920 C 132.000 183.038,131.161 184.544,130.137 186.267 C 127.497 190.704,126.000 193.591,126.000 194.241 C 126.000 194.548,125.820 194.800,125.600 194.800 C 125.380 194.800,125.200 195.149,125.200 195.576 C 125.200 196.003,125.020 196.464,124.800 196.600 C 124.580 196.736,124.400 197.197,124.400 197.624 C 124.400 198.051,124.220 198.400,124.000 198.400 C 123.780 198.400,123.600 198.839,123.600 199.376 C 123.600 199.913,123.420 200.464,123.200 200.600 C 122.980 200.736,122.800 201.276,122.800 201.800 C 122.800 202.324,122.620 202.864,122.400 203.000 C 122.180 203.136,122.000 203.676,122.000 204.200 C 122.000 204.724,121.820 205.264,121.600 205.400 C 121.380 205.536,121.200 206.256,121.200 207.000 C 121.200 207.744,121.020 208.464,120.800 208.600 C 120.580 208.736,120.400 209.431,120.400 210.144 C 120.400 210.857,120.237 211.611,120.037 211.820 C 119.677 212.196,119.556 213.030,118.793 220.400 C 118.048 227.584,118.874 244.163,120.037 245.380 C 120.237 245.589,120.400 246.343,120.400 247.056 C 120.400 247.769,120.580 248.464,120.800 248.600 C 121.020 248.736,121.200 249.289,121.200 249.829 C 121.200 250.369,121.362 251.123,121.561 251.505 C 121.760 251.887,122.151 253.010,122.431 254.000 C 122.710 254.990,123.088 255.971,123.270 256.180 C 123.451 256.389,123.600 256.886,123.600 257.285 C 123.600 257.684,123.780 258.368,124.000 258.805 C 124.220 259.242,124.580 259.958,124.800 260.395 C 125.020 260.832,125.200 261.462,125.200 261.795 C 125.200 262.128,125.380 262.400,125.600 262.400 C 125.820 262.400,126.000 262.760,126.000 263.200 C 126.000 263.640,126.180 264.000,126.400 264.000 C 126.620 264.000,126.800 264.360,126.800 264.800 C 126.800 265.240,126.980 265.600,127.200 265.600 C 127.420 265.600,127.600 265.960,127.600 266.400 C 127.600 266.840,127.780 267.200,128.000 267.200 C 128.220 267.200,128.400 267.560,128.400 268.000 C 128.400 268.440,128.550 268.800,128.732 268.800 C 128.915 268.800,129.313 269.295,129.615 269.900 C 129.918 270.505,130.939 272.134,131.883 273.519 C 132.827 274.905,133.604 276.165,133.609 276.319 C 133.614 276.474,134.244 277.295,135.009 278.144 C 135.774 278.993,136.400 279.834,136.400 280.012 C 136.400 281.149,151.546 295.200,152.771 295.200 C 152.970 295.200,153.193 295.366,153.267 295.569 C 153.593 296.470,164.150 302.424,168.300 304.048 C 170.231 304.803,171.429 305.308,172.095 305.647 C 172.477 305.841,173.141 306.000,173.571 306.000 C 174.001 306.000,174.464 306.180,174.600 306.400 C 174.736 306.620,175.276 306.800,175.800 306.800 C 176.324 306.800,176.864 306.980,177.000 307.200 C 177.136 307.420,177.766 307.600,178.400 307.600 C 179.034 307.600,179.664 307.780,179.800 308.000 C 179.936 308.220,180.721 308.400,181.544 308.400 C 182.367 308.400,183.211 308.563,183.420 308.761 C 184.156 309.461,193.927 310.466,200.000 310.466 C 206.073 310.466,215.844 309.461,216.580 308.761 C 216.789 308.563,217.633 308.400,218.456 308.400 C 219.279 308.400,220.064 308.220,220.200 308.000 C 220.336 307.780,220.966 307.600,221.600 307.600 C 222.234 307.600,222.864 307.420,223.000 307.200 C 223.136 306.980,223.676 306.800,224.200 306.800 C 224.724 306.800,225.264 306.620,225.400 306.400 C 225.536 306.180,225.999 306.000,226.429 306.000 C 226.859 306.000,227.523 305.841,227.905 305.647 C 228.287 305.452,229.050 305.116,229.600 304.900 C 232.006 303.954,232.797 303.600,236.192 301.948 C 240.096 300.048,246.519 296.161,246.733 295.569 C 246.807 295.366,247.030 295.200,247.229 295.200 C 248.454 295.200,263.600 281.149,263.600 280.012 C 263.600 279.834,264.226 278.993,264.991 278.144 C 265.756 277.295,266.386 276.474,266.391 276.319 C 266.396 276.165,267.173 274.905,268.117 273.519 C 269.061 272.134,270.082 270.505,270.385 269.900 C 270.687 269.295,271.085 268.800,271.268 268.800 C 271.450 268.800,271.600 268.440,271.600 268.000 C 271.600 267.560,271.780 267.200,272.000 267.200 C 272.220 267.200,272.400 266.840,272.400 266.400 C 272.400 265.960,272.580 265.600,272.800 265.600 C 273.020 265.600,273.200 265.240,273.200 264.800 C 273.200 264.360,273.380 264.000,273.600 264.000 C 273.820 264.000,274.000 263.640,274.000 263.200 C 274.000 262.760,274.180 262.400,274.400 262.400 C 274.620 262.400,274.800 262.128,274.800 261.795 C 274.800 261.462,274.980 260.832,275.200 260.395 C 275.420 259.958,275.780 259.242,276.000 258.805 C 276.220 258.368,276.400 257.684,276.400 257.285 C 276.400 256.886,276.549 256.389,276.730 256.180 C 276.912 255.971,277.290 254.990,277.569 254.000 C 277.849 253.010,278.240 251.887,278.439 251.505 C 278.638 251.123,278.800 250.369,278.800 249.829 C 278.800 249.289,278.980 248.736,279.200 248.600 C 279.420 248.464,279.600 247.769,279.600 247.056 C 279.600 246.343,279.763 245.589,279.963 245.380 C 280.588 244.726,281.573 234.313,281.569 228.400 C 281.565 222.573,280.587 212.473,279.963 211.820 C 279.763 211.611,279.600 210.857,279.600 210.144 C 279.600 209.431,279.420 208.736,279.200 208.600 C 278.980 208.464,278.800 207.744,278.800 207.000 C 278.800 206.256,278.620 205.536,278.400 205.400 C 278.180 205.264,278.000 204.724,278.000 204.200 C 278.000 203.676,277.820 203.136,277.600 203.000 C 277.380 202.864,277.200 202.313,277.200 201.776 C 277.200 201.239,277.020 200.800,276.800 200.800 C 276.580 200.800,276.400 200.361,276.400 199.824 C 276.400 199.287,276.220 198.736,276.000 198.600 C 275.780 198.464,275.600 198.003,275.600 197.576 C 275.600 197.149,275.420 196.800,275.200 196.800 C 274.980 196.800,274.800 196.528,274.800 196.195 C 274.800 195.862,274.632 195.277,274.426 194.895 C 274.221 194.513,273.817 193.615,273.529 192.900 C 273.240 192.185,272.869 191.600,272.702 191.600 C 272.536 191.600,272.400 191.240,272.400 190.800 C 272.400 190.360,272.241 190.000,272.047 190.000 C 271.852 190.000,271.590 189.685,271.464 189.300 C 271.137 188.300,269.393 185.407,267.355 182.481 C 266.390 181.095,265.600 179.805,265.600 179.614 C 265.600 179.423,265.458 179.207,265.285 179.133 C 265.112 179.060,264.347 178.197,263.585 177.216 C 261.768 174.877,253.940 167.035,251.398 165.007 C 250.299 164.131,249.340 163.276,249.267 163.107 C 249.193 162.938,248.956 162.800,248.739 162.800 C 248.303 162.800,245.009 160.611,243.892 159.579 C 242.528 158.320,232.202 153.132,228.700 151.947 C 227.875 151.668,227.200 151.295,227.200 151.120 C 227.200 150.944,226.761 150.800,226.224 150.800 C 225.687 150.800,225.134 150.617,224.996 150.393 C 224.858 150.170,224.608 150.072,224.441 150.175 C 224.273 150.278,223.251 150.095,222.168 149.767 C 220.395 149.231,218.607 148.846,212.200 147.622 C 211.100 147.412,208.220 147.134,205.800 147.005 C 203.380 146.876,200.860 146.713,200.200 146.643 C 199.540 146.573,196.570 146.734,193.600 146.999 M211.800 156.603 C 213.120 156.750,214.371 157.035,214.580 157.235 C 214.789 157.436,215.633 157.600,216.456 157.600 C 217.279 157.600,218.064 157.780,218.200 158.000 C 218.336 158.220,218.966 158.400,219.600 158.400 C 220.234 158.400,220.864 158.580,221.000 158.800 C 221.136 159.020,221.676 159.200,222.200 159.200 C 222.724 159.200,223.264 159.380,223.400 159.600 C 223.536 159.820,223.999 160.000,224.429 160.000 C 224.859 160.000,225.523 160.159,225.905 160.353 C 226.287 160.548,227.050 160.886,227.600 161.106 C 237.861 165.205,248.275 172.641,255.194 180.809 C 256.401 182.234,257.610 183.632,257.880 183.915 C 258.151 184.198,258.687 184.963,259.072 185.615 C 259.457 186.267,259.914 186.800,260.086 186.800 C 260.259 186.800,260.400 186.967,260.400 187.172 C 260.400 187.376,261.140 188.658,262.044 190.019 C 263.943 192.878,267.991 201.078,267.996 202.076 C 267.998 202.448,268.180 202.864,268.400 203.000 C 268.620 203.136,268.800 203.676,268.800 204.200 C 268.800 204.724,268.980 205.264,269.200 205.400 C 269.420 205.536,269.600 206.076,269.600 206.600 C 269.600 207.124,269.780 207.664,270.000 207.800 C 270.220 207.936,270.400 208.656,270.400 209.400 C 270.400 210.144,270.580 210.864,270.800 211.000 C 271.020 211.136,271.200 211.856,271.200 212.600 C 271.200 213.344,271.380 214.064,271.600 214.200 C 271.820 214.336,272.000 215.391,272.000 216.544 C 272.000 217.697,272.187 218.827,272.415 219.055 C 272.963 219.603,272.656 236.891,272.036 240.400 C 271.784 241.830,271.473 243.676,271.346 244.503 C 271.219 245.329,270.955 246.105,270.758 246.226 C 270.561 246.348,270.400 247.056,270.400 247.800 C 270.400 248.544,270.220 249.264,270.000 249.400 C 269.780 249.536,269.600 250.076,269.600 250.600 C 269.600 251.124,269.420 251.664,269.200 251.800 C 268.980 251.936,268.800 252.399,268.800 252.829 C 268.800 253.259,268.625 253.923,268.410 254.305 C 268.196 254.687,267.547 256.170,266.968 257.600 C 265.956 260.102,262.925 265.987,262.436 266.400 C 262.305 266.510,261.944 267.095,261.632 267.700 C 261.320 268.305,260.915 268.800,260.732 268.800 C 260.550 268.800,260.400 269.036,260.400 269.325 C 260.400 269.613,260.080 270.198,259.689 270.625 C 259.298 271.051,258.535 272.028,257.994 272.796 C 255.304 276.610,245.653 286.150,243.868 286.760 C 243.611 286.848,243.310 287.040,243.200 287.186 C 242.908 287.576,239.299 290.000,239.011 290.000 C 238.877 290.000,238.380 290.360,237.908 290.800 C 237.436 291.240,236.813 291.600,236.525 291.600 C 236.236 291.600,236.000 291.780,236.000 292.000 C 236.000 292.220,235.640 292.400,235.200 292.400 C 234.760 292.400,234.400 292.580,234.400 292.800 C 234.400 293.020,234.040 293.200,233.600 293.200 C 233.160 293.200,232.800 293.380,232.800 293.600 C 232.800 293.820,232.440 294.000,232.000 294.000 C 231.560 294.000,231.200 294.180,231.200 294.400 C 231.200 294.620,230.947 294.800,230.638 294.800 C 230.153 294.800,228.880 295.352,225.905 296.850 C 225.523 297.043,224.859 297.200,224.429 297.200 C 223.999 297.200,223.549 297.359,223.429 297.554 C 223.308 297.749,222.713 297.998,222.105 298.109 C 221.497 298.220,220.010 298.583,218.800 298.916 C 207.919 301.910,193.632 301.851,182.200 298.766 C 181.320 298.528,180.103 298.238,179.495 298.121 C 178.887 298.004,178.292 297.749,178.171 297.554 C 178.051 297.359,177.601 297.200,177.171 297.200 C 176.741 297.200,176.077 297.041,175.695 296.847 C 175.313 296.652,174.550 296.315,174.000 296.097 C 171.955 295.287,168.996 293.790,168.867 293.500 C 168.793 293.335,168.388 293.200,167.967 293.200 C 167.545 293.200,167.200 293.020,167.200 292.800 C 167.200 292.580,166.840 292.400,166.400 292.400 C 165.960 292.400,165.600 292.220,165.600 292.000 C 165.600 291.780,165.364 291.600,165.075 291.600 C 164.787 291.600,164.164 291.240,163.692 290.800 C 163.220 290.360,162.556 290.000,162.217 290.000 C 161.878 290.000,161.600 289.850,161.600 289.668 C 161.600 289.485,161.105 289.081,160.500 288.770 C 159.895 288.460,159.130 287.917,158.800 287.565 C 158.470 287.213,157.989 286.852,157.732 286.763 C 155.843 286.106,144.604 274.879,143.027 272.073 C 142.822 271.708,142.327 271.058,141.927 270.629 C 141.527 270.200,141.200 269.696,141.200 269.508 C 141.200 269.320,140.840 268.780,140.400 268.308 C 139.960 267.836,139.600 267.213,139.600 266.925 C 139.600 266.636,139.443 266.400,139.251 266.400 C 138.119 266.400,131.237 250.242,131.210 247.524 C 131.205 246.932,131.020 246.336,130.800 246.200 C 130.580 246.064,130.400 245.344,130.400 244.600 C 130.400 243.856,130.220 243.136,130.000 243.000 C 129.780 242.864,129.600 241.784,129.600 240.600 C 129.600 239.416,129.420 238.336,129.200 238.200 C 128.952 238.047,128.800 234.404,128.800 228.600 C 128.800 222.796,128.952 219.153,129.200 219.000 C 129.420 218.864,129.600 217.784,129.600 216.600 C 129.600 215.416,129.780 214.336,130.000 214.200 C 130.220 214.064,130.400 213.344,130.400 212.600 C 130.400 211.856,130.580 211.136,130.800 211.000 C 131.020 210.864,131.200 210.221,131.200 209.571 C 131.200 208.921,131.358 208.077,131.551 207.695 C 131.744 207.313,132.121 206.280,132.389 205.400 C 133.678 201.162,137.679 192.359,138.449 192.067 C 138.642 191.993,138.800 191.760,138.800 191.549 C 138.800 191.063,142.824 185.046,143.270 184.867 C 143.451 184.793,143.600 184.560,143.600 184.349 C 143.600 184.138,144.037 183.494,144.571 182.918 C 145.105 182.342,146.590 180.676,147.871 179.215 C 150.998 175.651,159.471 168.519,162.000 167.323 C 162.330 167.166,163.185 166.642,163.901 166.157 C 165.112 165.336,171.742 162.023,174.000 161.111 C 174.550 160.888,175.313 160.548,175.695 160.353 C 176.077 160.159,176.741 160.000,177.171 160.000 C 177.601 160.000,178.064 159.820,178.200 159.600 C 178.336 159.380,178.876 159.200,179.400 159.200 C 179.924 159.200,180.464 159.020,180.600 158.800 C 180.736 158.580,181.456 158.400,182.200 158.400 C 182.944 158.400,183.652 158.239,183.774 158.042 C 183.997 157.682,184.749 157.533,189.717 156.865 C 191.211 156.664,192.553 156.381,192.698 156.235 C 193.012 155.921,208.336 156.217,211.800 156.603 " stroke="none" fill="#04bbfc" fill-rule="evenodd"></path><path id="path1" d="M170.000 75.234 C 161.653 79.018,162.038 92.347,170.602 96.065 C 171.412 96.417,174.715 96.653,180.800 96.793 L 189.800 97.000 189.905 111.691 L 190.010 126.382 189.105 126.559 C 188.607 126.655,186.220 127.030,183.800 127.390 C 173.383 128.942,163.831 132.076,153.461 137.346 C 148.924 139.651,147.857 140.055,147.566 139.580 C 147.370 139.261,145.043 135.670,142.394 131.600 C 139.745 127.530,137.409 123.930,137.202 123.600 C 129.829 111.837,126.500 109.748,119.913 112.748 C 112.260 116.235,111.303 123.765,117.492 131.800 C 117.661 132.020,118.055 132.695,118.368 133.300 C 118.680 133.905,119.085 134.400,119.268 134.400 C 119.450 134.400,119.600 134.578,119.600 134.795 C 119.600 135.012,120.814 137.037,122.298 139.295 C 123.782 141.553,125.177 143.706,125.398 144.081 C 126.132 145.325,129.161 150.181,130.013 151.480 L 130.853 152.760 126.775 157.080 C 118.628 165.711,111.888 175.270,108.076 183.601 C 106.095 187.932,104.968 190.528,104.430 192.000 C 104.149 192.770,103.776 193.760,103.600 194.200 C 103.127 195.385,102.555 197.173,102.000 199.200 C 101.729 200.190,101.365 201.450,101.192 202.000 C 100.626 203.796,99.703 207.974,99.160 211.200 C 97.229 222.673,97.229 234.527,99.160 246.000 C 99.767 249.606,100.964 254.778,101.844 257.600 C 102.153 258.590,102.597 260.030,102.830 260.800 C 103.062 261.570,103.403 262.560,103.587 263.000 C 103.771 263.440,104.325 264.880,104.817 266.200 C 113.879 290.488,135.834 313.074,160.000 322.971 C 161.430 323.557,162.960 324.202,163.400 324.405 C 164.979 325.133,172.998 327.629,176.000 328.326 C 181.337 329.565,183.649 329.960,190.400 330.785 C 194.773 331.320,205.227 331.320,209.600 330.785 C 216.339 329.962,218.923 329.522,223.900 328.354 C 227.039 327.617,235.010 325.139,236.600 324.405 C 237.040 324.202,238.570 323.559,240.000 322.977 C 264.027 313.194,286.137 290.445,295.183 266.200 C 295.675 264.880,296.229 263.440,296.413 263.000 C 296.597 262.560,296.938 261.570,297.170 260.800 C 297.403 260.030,297.847 258.590,298.156 257.600 C 299.016 254.844,300.207 249.717,300.851 246.000 C 302.369 237.241,302.714 227.388,301.804 218.800 C 300.978 210.995,300.198 206.842,298.367 200.500 C 298.129 199.675,297.838 198.503,297.721 197.895 C 297.604 197.287,297.349 196.692,297.154 196.571 C 296.959 196.451,296.800 196.001,296.800 195.571 C 296.800 195.141,296.633 194.477,296.430 194.095 C 296.226 193.713,295.582 192.147,294.998 190.616 C 290.338 178.396,282.579 166.668,272.103 156.012 C 266.336 150.145,266.521 150.978,269.900 146.108 C 271.385 143.968,273.590 140.755,274.800 138.968 C 276.010 137.182,278.271 133.848,279.824 131.560 C 283.708 125.839,284.436 124.146,284.447 120.818 C 284.477 111.415,273.260 106.764,266.666 113.446 C 265.258 114.873,264.173 116.498,260.363 122.885 C 257.463 127.748,249.931 138.400,249.394 138.400 C 249.083 138.400,247.067 137.536,244.914 136.479 C 235.668 131.941,225.892 128.844,216.200 127.382 C 213.780 127.017,211.573 126.651,211.295 126.570 C 210.898 126.453,210.813 123.283,210.895 111.711 L 211.000 97.000 219.400 96.901 C 224.020 96.847,228.205 96.622,228.700 96.401 C 231.043 95.356,231.545 95.071,232.458 94.265 C 238.243 89.157,236.758 78.588,229.800 75.341 L 227.800 74.408 199.800 74.413 C 172.477 74.417,171.756 74.437,170.000 75.234 M206.600 146.624 C 209.812 146.845,214.819 147.570,217.600 148.217 C 218.150 148.345,219.410 148.640,220.400 148.873 C 228.324 150.740,238.487 155.350,245.067 160.061 C 246.865 161.347,248.460 162.400,248.612 162.400 C 249.903 162.400,262.381 174.813,265.711 179.409 C 281.610 201.356,286.107 227.560,278.341 253.000 C 276.171 260.110,270.564 272.083,269.100 272.733 C 268.935 272.807,268.800 273.055,268.800 273.284 C 268.800 273.916,265.012 278.972,261.672 282.800 C 248.970 297.358,232.486 306.479,212.400 310.064 C 208.331 310.791,191.669 310.791,187.600 310.064 C 170.740 307.055,156.926 300.433,145.140 289.712 C 141.083 286.021,135.827 280.218,133.800 277.192 C 133.140 276.206,132.285 275.051,131.900 274.625 C 131.515 274.198,131.200 273.628,131.200 273.358 C 131.200 273.088,131.065 272.807,130.900 272.733 C 130.441 272.529,128.377 268.984,126.515 265.200 C 113.919 239.610,115.410 208.813,130.391 185.111 C 135.163 177.559,144.978 166.661,148.749 164.725 C 149.740 164.216,151.462 162.977,152.576 161.972 C 155.331 159.483,157.466 158.080,162.403 155.513 C 169.385 151.883,175.061 149.848,183.300 148.023 C 187.844 147.017,197.387 146.026,200.600 146.227 C 201.920 146.309,204.620 146.488,206.600 146.624 M191.400 156.872 C 166.624 160.906,148.091 174.121,136.804 195.800 C 128.743 211.283,126.682 232.142,131.624 248.200 C 132.929 252.440,133.400 253.755,134.698 256.800 C 142.204 274.401,156.748 288.650,174.400 295.694 C 174.950 295.914,175.713 296.252,176.095 296.447 C 176.477 296.641,177.141 296.800,177.571 296.800 C 178.001 296.800,178.451 296.959,178.571 297.154 C 178.692 297.349,179.287 297.604,179.895 297.721 C 180.503 297.838,181.720 298.131,182.600 298.372 C 193.942 301.477,207.442 301.499,218.800 298.432 C 219.570 298.224,220.650 297.937,221.200 297.794 C 221.750 297.650,222.560 297.386,223.000 297.207 C 223.440 297.028,224.430 296.664,225.200 296.400 C 243.551 290.099,260.280 273.769,267.613 255.000 C 273.114 240.920,274.084 222.090,269.982 209.000 C 269.775 208.340,269.352 206.990,269.042 206.000 C 261.092 180.656,238.791 161.677,211.600 157.116 C 208.426 156.583,194.225 156.412,191.400 156.872 M203.711 169.624 C 205.727 170.184,207.725 172.003,208.773 174.232 C 209.548 175.880,210.034 205.511,209.650 227.600 C 209.619 229.377,209.122 231.600,208.756 231.600 C 208.560 231.600,208.400 231.825,208.400 232.100 C 208.397 234.920,201.585 237.439,197.826 236.010 C 197.262 235.795,196.800 235.765,196.800 235.942 C 196.800 236.120,196.305 236.520,195.700 236.832 C 195.095 237.145,194.251 237.715,193.825 238.100 C 193.398 238.485,192.813 238.800,192.525 238.800 C 192.236 238.800,192.000 238.980,192.000 239.200 C 192.000 239.420,191.722 239.600,191.383 239.600 C 191.044 239.600,190.380 239.960,189.908 240.400 C 189.436 240.840,188.813 241.200,188.525 241.200 C 188.236 241.200,188.000 241.380,188.000 241.600 C 188.000 241.820,187.822 242.000,187.606 242.000 C 187.389 242.000,185.724 242.887,183.906 243.972 C 176.285 248.518,171.652 247.613,169.683 241.192 C 168.763 238.188,172.036 232.400,174.656 232.400 C 174.955 232.400,175.200 232.241,175.200 232.047 C 175.200 231.852,175.515 231.593,175.900 231.471 C 176.585 231.254,178.804 229.996,179.200 229.600 C 179.596 229.204,181.815 227.946,182.500 227.729 C 182.885 227.607,183.200 227.348,183.200 227.153 C 183.200 226.959,183.393 226.800,183.628 226.800 C 183.863 226.800,184.841 226.260,185.800 225.600 C 186.759 224.940,187.722 224.400,187.939 224.400 C 188.156 224.400,188.393 224.265,188.467 224.100 C 188.540 223.935,189.410 223.363,190.400 222.830 C 191.390 222.296,192.332 221.666,192.494 221.430 C 192.656 221.193,192.791 210.783,192.794 198.296 C 192.800 176.012,192.816 175.558,193.647 173.789 C 195.318 170.234,199.570 168.474,203.711 169.624 M192.500 223.888 C 192.154 224.012,192.000 225.103,192.000 227.439 C 192.000 229.393,192.210 231.187,192.500 231.705 C 193.244 233.036,194.496 234.418,195.400 234.904 C 195.950 235.200,195.805 234.884,194.936 233.895 C 193.084 231.785,192.169 228.353,192.798 225.876 C 193.318 223.826,193.286 223.608,192.500 223.888 " stroke="none" fill="#f9faf8" fill-rule="evenodd"></path><path id="path2" d="M197.929 170.141 C 193.152 172.262,193.250 171.651,193.203 199.835 C 193.177 215.559,193.012 224.838,192.736 226.000 C 191.898 229.535,194.303 234.532,197.481 235.860 C 201.371 237.485,208.397 235.066,208.400 232.100 C 208.400 231.825,208.560 231.600,208.756 231.600 C 209.134 231.600,209.667 229.146,209.582 227.800 C 209.554 227.360,209.412 215.300,209.266 201.000 C 208.977 172.740,209.075 173.872,206.738 171.747 C 204.471 169.685,200.561 168.972,197.929 170.141 " stroke="none" fill="#040404" fill-rule="evenodd"></path><path id="path3" d="" stroke="none" fill="#40a8100" fill-rule="evenodd"></path><path id="path4" d="" stroke="none" fill="#40a8100" fill-rule="evenodd"></path></g></svg>